{"title":"Ramona And Beezus 2010 DvDRip XviD Ac3 Feel-Free","uid":5922341,"size":1366547323,"categoryP":"video","categoryS":"movies","magnet":"?xt=urn:btih:189c268e3ee0aea73f3d47cc76792148b65331c3&amp;dn=Ramona+And+Beezus+2010+DvDRip+XviD+Ac3+Feel-Free&amp;tr=udp%3A%2F%2Ftracker.openbittorrent.com%3A80&amp;tr=udp%3A%2F%2Fopen.demonii.com%3A1337&amp;tr=udp%3A%2F%2Ftracker.coppersurfer.tk%3A6969&amp;tr=udp%3A%2F%2Fexodus.desync.com%3A6969","seeders":0,"leechers":0,"uploader":"neon","files":-1,"time":1288472262,"description":"Plot:\nFollows the misadventures of young grade schooler Ramona Quimby from Beverly Cleary's popular children's book series.\n\nGenre:Adventure | Comedy | Family | Fantasy\nLanguage:English\n &lt;a href=&quot; http://www.imdb.com/title/tt0493949/&quot; rel=&quot;nofollow&quot; target=&quot;_NEW&quot;&gt; http://www.imdb.com/title/tt0493949/&lt;/a&gt;\nSource:DVDR\n\nGeneral\nComplete name :Ramona And Beezus 2010 DvDRip XviD Ac3 Feel-Free\nFormat : AVI\nFormat/Info : Audio Video Interleave\nFile size : 1.27 GiB\nDuration : 1h 43mn\nOverall bit rate : 1 760 Kbps\nVideo #0\nCodec ID : XVID\nCodec ID/Hint : XviD\nDuration : 1h 43mn\nBit rate : 1 303 Kbps\nWidth : 720 pixels\nHeight : 304 pixels\nDisplay aspect ratio : 2.35:1\nFrame rate : 23.976 fps\nResolution : 24 bits\nColorimetry : 4:2:0\nScan type : Progressive\nBits/(Pixel*Frame) : 0.248\nStream size : 964 MiB (74%)\nWriting library : XviD 1.2.1 (UTC 2008-12-04)\nAudio #1\nID : 1\nFormat : AC-3\nFormat/Info : Audio Coding 3\nCodec ID : 2000\nDuration : 1h 43mn\nBit rate mode : Constant\nBit rate : 448 Kbps\nChannel(s) : 6 channels\nChannel positions : Front: L C R, Surround: L R, LFE\nSampling rate : 48.0 KHz\nStream size : 332 MiB (25%)\nAlignment : Split accross interleaves\nInterleave, duration : 42 ms (1.00 video frame)\nInterleave, preload duration : 500 ms\n\n","torrent":{"xt":"urn:btih:189c268e3ee0aea73f3d47cc76792148b65331c3","amp;dn":"Ramona+And+Beezus+2010+DvDRip+XviD+Ac3+Feel-Free","amp;tr":["udp%3A%2F%2Ftracker.openbittorrent.com%3A80","udp%3A%2F%2Fopen.demonii.com%3A1337","udp%3A%2F%2Ftracker.coppersurfer.tk%3A6969","udp%3A%2F%2Fexodus.desync.com%3A6969"],"infoHash":"189c268e3ee0aea73f3d47cc76792148b65331c3","infoHashBuffer":{"type":"Buffer","data":[24,156,38,142,62,224,174,167,63,61,71,204,118,121,33,72,182,83,49,195]},"announce":[],"urlList":[]}}